<?xml version="1.0" encoding="utf-8" ?><svg xmlns="http://www.w3.org/2000/svg" xmlns:xlink="http://www.w3.org/1999/xlink" width="1024" height="1024" viewBox="0 0 1024 1024"><path fill="#E4F5FF" d="M284.048 197.147C292.897 196.463 311.521 197.034 320.965 197.031L387.808 196.942L579.568 196.966C579.823 233.411 579.799 269.857 579.497 306.301C579.458 316.861 579.475 327.421 579.548 337.981C579.649 349.672 578.409 360.629 587.194 369.517C591.43 373.803 596.818 377.495 602.912 378.285C617.28 380.146 632.062 378.591 646.541 379.055C681.795 379.694 718.342 378.315 753.424 379.365C753.884 408.313 753.512 438.272 753.5 467.258L753.36 640.436L753.436 753.08C753.469 771.604 753.631 790.132 753.552 808.653C753.51 818.359 748.394 824.806 739.025 827.33C714.443 828.678 683.861 827.932 658.828 827.972L511.553 828L360.591 827.982L313.113 828.013C304.399 828.028 295.708 828.056 286.986 827.951C282.132 828.27 273.363 824.082 272.311 819.043C270.635 811.02 271.089 802.014 271.09 793.803L271.111 765.859L271.233 663.5L271.094 335.498L271.067 249.727L270.954 224.103C270.889 211.825 268.378 199.823 284.048 197.147ZM299.959 798.994L577.269 798.981L661.861 799.052C681.763 799.118 702.579 799.429 722.448 799.024C723.501 797.555 723.002 757.805 723.012 752.983L429.589 753.018L344.332 752.99C330.733 752.98 313.587 752.462 300.235 753.045C299.486 767.634 299.814 784.333 299.959 798.994ZM340.022 698.524L340.079 730.801L646.875 730.614C658.739 730.597 673.3 730.194 684.949 730.692C684.875 719.86 684.912 709.027 685.058 698.196C669.518 697.722 651.189 698.163 635.377 698.111C589.007 697.972 542.637 698.087 496.269 698.456L417.479 698.225C405.909 698.189 389.667 697.627 378.419 698.235C365.616 698.784 352.766 698.216 340.022 698.524ZM339.888 668.678C355.838 669.805 379.208 668.863 396.06 668.995L542.135 668.947C575.819 669.16 609.504 669.166 643.188 668.967C652.569 668.963 661.95 669.011 671.33 669.111C675.027 669.126 681.699 669.349 685.009 668.981C685.342 668.185 685.308 668.516 685.318 668.03C685.511 657.529 685.444 647.025 685.118 636.528C611.451 637.403 536.962 636.712 463.25 636.648L384.734 636.947C372.311 636.954 352.451 637.109 340.026 636.315C339.68 645.908 340.597 660.249 339.888 668.678ZM597.851 514.264L410.972 514.354C403.387 514.357 344.094 513.752 340.333 515.142C338.558 519.348 339.327 540.218 339.473 545.864C346.393 545.057 361.946 545.661 369.64 545.704L430.425 545.947L684.943 545.762C685.449 537.668 685.41 522.368 685.025 514.182C659.174 514.332 633.29 514.504 607.438 514.109C604.319 514.061 600.961 514.109 597.851 514.264ZM339.999 332.628L339.863 364.067L446.034 363.997C464.183 363.996 485.346 363.483 503.328 364.172C507.207 364.265 510.625 364.062 514.502 363.851C514.293 354.332 514.051 342.598 514.414 333.059L403.336 332.552C393.76 332.539 384.185 332.445 374.611 332.272C367.877 332.143 359.127 331.735 352.529 332.265L339.999 332.628ZM340.002 393.053C339.904 402.281 339.562 414.808 339.954 423.876C360.404 423.655 380.789 423.908 401.25 423.907L474.67 423.979C487.569 423.945 502.121 422.655 514.659 424.315C514.532 413.886 514.967 403.133 514.976 392.599C497.397 392.489 472.801 391.834 455.636 392.773C417.734 393.82 377.671 391.792 340.002 393.053ZM339.587 453.754C339.611 463.827 339.921 474.991 339.751 484.95C345.878 484.329 358.662 484.873 365.558 484.887L420.25 484.94L685.064 484.954C684.3 478.278 685.364 461.665 685.071 453.003C658.217 452.921 631.363 453.003 604.51 453.25L441.181 453.541C407.793 453.546 372.905 453.096 339.587 453.754ZM339.565 575.026C339.606 580.952 340.208 603.033 339.645 606.998L366.64 606.927C393.894 605.696 425.332 606.934 452.92 606.904L595.446 606.886C625.303 607.068 655.161 607.041 685.017 606.805C684.99 596.602 685.234 585.04 684.934 574.988L661.605 574.754C645.392 575.391 626.73 574.985 610.308 575.008L512.75 575.002L397.924 575.013C378.927 575.028 358.479 575.417 339.565 575.026Z"/><path fill="#E4F5FF" d="M609.482 199.441C619.287 207.702 651.949 242.487 659.814 250.839C670.027 261.685 753.673 343.996 754.661 348.203L753.624 348.299C735.507 348.653 716.337 348.291 698.135 348.27L608.997 348.363C609.559 335.745 609.018 321.945 609.243 309.157C609.884 272.799 608.74 235.726 609.482 199.441Z"/></svg>